<svg xmlns="http://www.w3.org/2000/svg" viewBox="0 0 128 128"><rect width="128" height="128" rx="28" fill="#fff"/><path d="M92 65c0 17-12 30-31 30-18 0-33-14-33-32s15-32 33-32c9 0 16 3 22 8L74 48c-3-3-8-5-13-5-11 0-20 9-20 20s9 20 20 20c10 0 16-5 18-13H61V58h31c1 2 1 4 1 7z" fill="#4285f4"/><path d="M27 63c0-5 1-10 3-14l11 8c-1 2-1 4-1 6s0 4 1 6l-11 8c-2-4-3-9-3-14z" fill="#fbbc04"/><path d="M61 31c9 0 16 3 22 8L74 48c-3-3-8-5-13-5-8 0-15 5-18 12l-11-8c5-10 16-16 29-16z" fill="#ea4335"/><path d="M61 95c-13 0-24-7-29-17l11-8c3 8 10 13 18 13 5 0 10-1 13-4l10 8c-6 5-14 8-23 8z" fill="#34a853"/><path d="M84 78 113 107M113 78 84 107" stroke="#d93025" stroke-width="14" stroke-linecap="round"/></svg>
